<?xml version="1.0" encoding="utf-8"?>
<!-- Generator: Adobe Illustrator 19.0.0, SVG Export Plug-In . SVG Version: 6.00 Build 0)  -->
<svg version="1.1" id="Layer_1" xmlns="http://www.w3.org/2000/svg" xmlns:xlink="http://www.w3.org/1999/xlink" x="0px" y="0px"
	 viewBox="0 0 500 500" style="enable-background:new 0 0 500 500;" xml:space="preserve">
<style type="text/css">
	.st0{fill:#207245;}
	.st1{fill:#FFFFFF;}
</style>
<g id="XMLID_16_">
	<path id="XMLID_18_" class="st0" d="M281.7,79v31.8c39.8,0,79.6,0.1,119.4-0.1c3.4,0.1,11.2,0.1,14.6,0.5c6.7,0.8,8.8,3.6,9.2,10.4
		c0.2,3.5-0.1,9.6,0.1,13c-0.2,69-0.1,138-0.1,207c-0.2,11.6,0.1,34.7,0.1,34.7c0,4-1.3,6.1-3.2,7.2c-3.9,2.1-11.9,1.5-16.4,1.7
		c-41.2,0.1-82.4-0.1-123.7,0V421L75,389.2V110.9L281.7,79z"/>
	<path id="XMLID_22_" class="st1" d="M281.7,122.8c43.7,0,87.5,0,131.2,0c0,83.5,0,167,0,250.5c-43.7,0-87.5,0-131.2,0
		c0-8,0-15.9,0-23.9c10.6,0,21.2,0,31.8,0c0-9.3,0-18.6,0-27.8c-10.6,0-21.2,0-31.8,0c0-5.3,0-10.6,0-15.9c10.6,0,21.2,0,31.8,0
		c0-9.3,0-18.6,0-27.8c-10.6,0-21.2,0-31.8,0c0-5.3,0-10.6,0-15.9c10.6,0,21.2,0,31.8,0c0-9.3,0-18.6,0-27.8c-10.6,0-21.2,0-31.8,0
		c0-5.3,0-10.6,0-15.9c10.6,0,21.2,0,31.8,0c0-9.3,0-18.6,0-27.8c-10.6,0-21.2,0-31.8,0c0-5.3,0-10.6,0-15.9c10.6,0,21.2,0,31.8,0
		c0-9.3,0-18.6,0-27.8c-10.6,0-21.2,0-31.8,0C281.7,138.7,281.7,130.7,281.7,122.8z"/>
	<path id="XMLID_23_" class="st0" d="M329.4,146.6c18.6,0,37.1,0,55.7,0c0,9.3,0,18.6,0,27.8c-18.6,0-37.1,0-55.7,0
		C329.4,165.2,329.4,155.9,329.4,146.6z"/>
	<path id="XMLID_24_" class="st1" d="M192.8,183.9c9-0.6,18-1.2,27-1.6c-10.6,21.7-21.3,43.5-32.1,65.2
		c10.9,22.3,22.1,44.4,33.1,66.6c-9.6-0.6-19.1-1.2-28.7-1.8c-6.8-16.6-15-32.6-19.8-49.9c-5.4,16.1-13.1,31.4-19.3,47.2
		c-8.7-0.1-17.4-0.5-26.1-0.8c10.2-20,20.1-40.2,30.6-60c-8.9-20.5-18.8-40.6-28-60.9c8.7-0.5,17.5-1,26.2-1.5
		c5.9,15.5,12.4,30.9,17.3,46.8C178.2,216.1,186,200.2,192.8,183.9z"/>
	<path id="XMLID_25_" class="st0" d="M329.4,190.4c18.6,0,37.1,0,55.7,0c0,9.3,0,18.6,0,27.8c-18.6,0-37.1,0-55.7,0
		C329.4,208.9,329.4,199.6,329.4,190.4z"/>
	<path id="XMLID_26_" class="st0" d="M329.4,234.1c18.6,0,37.1,0,55.7,0c0,9.3,0,18.6,0,27.8c-18.6,0-37.1,0-55.7,0
		C329.4,252.7,329.4,243.4,329.4,234.1z"/>
	<path id="XMLID_27_" class="st0" d="M329.4,277.8c18.6,0,37.1,0,55.7,0c0,9.3,0,18.6,0,27.8c-18.6,0-37.1,0-55.7,0
		C329.4,296.4,329.4,287.1,329.4,277.8z"/>
	<path id="XMLID_28_" class="st0" d="M329.4,321.6c18.6,0,37.1,0,55.7,0c0,9.3,0,18.6,0,27.8c-18.6,0-37.1,0-55.7,0
		C329.4,340.1,329.4,330.8,329.4,321.6z"/>
</g>
</svg>
